<?xml version="1.0" encoding="UTF-8" standalone="no"?>
<svg
   xmlns:dc="http://purl.org/dc/elements/1.1/"
   xmlns:cc="http://creativecommons.org/ns#"
   xmlns:rdf="http://www.w3.org/1999/02/22-rdf-syntax-ns#"
   xmlns:svg="http://www.w3.org/2000/svg"
   xmlns="http://www.w3.org/2000/svg"
   xmlns:sodipodi="http://sodipodi.sourceforge.net/DTD/sodipodi-0.dtd"
   xmlns:inkscape="http://www.inkscape.org/namespaces/inkscape"
   sodipodi:docname="logo.svg"
   inkscape:version="1.0beta2 (unknown)"
   id="svg8"
   version="1.1"
   viewBox="0 0 78.59301 7.833291"
   height="7.8332915mm"
   width="78.59301mm">
  <defs
     id="defs2">
    <rect
       id="rect961"
       height="15.050289"
       width="68.313232"
       y="45.784225"
       x="26.211885" />
  </defs>
  <sodipodi:namedview
     inkscape:window-maximized="1"
     inkscape:window-y="0"
     inkscape:window-x="0"
     inkscape:window-height="1048"
     inkscape:window-width="1920"
     showgrid="false"
     inkscape:document-rotation="0"
     inkscape:current-layer="layer1"
     inkscape:document-units="mm"
     inkscape:cy="22.367901"
     inkscape:cx="146.03611"
     inkscape:zoom="3.132656"
     inkscape:pageshadow="2"
     inkscape:pageopacity="0.0"
     borderopacity="1.0"
     bordercolor="#666666"
     pagecolor="#ffffff"
     id="base"
     fit-margin-top="0"
     fit-margin-left="0"
     fit-margin-right="0"
     fit-margin-bottom="0">
    <inkscape:grid
       id="grid18"
       type="xygrid"
       originx="-0.25282787"
       originy="-46.302075" />
  </sodipodi:namedview>
  <metadata
     id="metadata5">
    <rdf:RDF>
      <cc:Work
         rdf:about="">
        <dc:format>image/svg+xml</dc:format>
        <dc:type
           rdf:resource="http://purl.org/dc/dcmitype/StillImage" />
        <dc:title></dc:title>
      </cc:Work>
    </rdf:RDF>
  </metadata>
  <g
     id="layer1"
     inkscape:groupmode="layer"
     inkscape:label="Layer 1"
     transform="translate(-0.25282799,-46.302089)">
    <g
       aria-label="TNTranslator"
       id="text12"
       style="font-style:normal;font-weight:normal;font-size:10.5833px;line-height:1.25;font-family:sans-serif;letter-spacing:0px;word-spacing:0px;fill:#000000;fill-opacity:1;stroke:none;stroke-width:0.264583"
       transform="translate(-26.987504)">
      <g
         style="font-style:normal;font-weight:normal;font-size:9.87778px;line-height:1.25;font-family:sans-serif;letter-spacing:0px;word-spacing:0px;white-space:pre;shape-inside:url(#rect961);fill:#000000;fill-opacity:1;stroke:none"
         id="text959"
         transform="translate(1.0583333,-0.52916667)"
         aria-label="TNTranslator">
        <path
           id="path1126"
           style=""
           d="m 26.181999,47.323736 h 6.091619 v 0.819933 h -2.556262 v 6.381007 H 28.73826 v -6.381007 h -2.556261 z" />
        <path
           id="path1128"
           style=""
           d="m 33.214129,47.323736 h 1.311893 l 3.192915,6.024096 v -6.024096 h 0.945334 v 7.20094 h -1.311892 l -3.192916,-6.024095 v 6.024095 h -0.945334 z" />
        <path
           id="path1130"
           style=""
           d="m 39.604783,47.323736 h 6.091619 v 0.819933 H 43.14014 v 6.381007 h -0.979096 v -6.381007 h -2.556261 z" />
        <path
           id="path1132"
           style=""
           d="m 48.276778,49.952345 q -0.149517,-0.08682 -0.327973,-0.125402 -0.173633,-0.04341 -0.385851,-0.04341 -0.752409,0 -1.157553,0.49196 -0.40032,0.487136 -0.40032,1.403532 v 2.845649 h -0.89228 v -5.401911 h 0.89228 v 0.839226 q 0.279742,-0.49196 0.728294,-0.728293 0.448551,-0.241157 1.090028,-0.241157 0.09164,0 0.202572,0.01447 0.110932,0.0096 0.24598,0.03376 z" />
        <path
           id="path1134"
           style=""
           d="m 51.66262,51.809252 q -1.075559,0 -1.490349,0.245979 -0.414789,0.24598 -0.414789,0.839226 0,0.472667 0.30868,0.752409 0.313504,0.274919 0.848872,0.274919 0.737939,0 1.181668,-0.520899 0.448551,-0.525722 0.448551,-1.393886 v -0.197748 z m 1.77009,-0.366559 v 3.081983 h -0.887457 v -0.819932 q -0.303857,0.491959 -0.757232,0.728293 -0.453374,0.23151 -1.109321,0.23151 -0.829579,0 -1.321539,-0.463021 -0.487136,-0.467844 -0.487136,-1.249192 0,-0.911572 0.607715,-1.374593 0.612538,-0.463021 1.823145,-0.463021 h 1.244368 v -0.08682 q 0,-0.612538 -0.405143,-0.945335 -0.40032,-0.337619 -1.128613,-0.337619 -0.463021,0 -0.901927,0.110932 -0.438905,0.110932 -0.844048,0.332796 v -0.819933 q 0.487136,-0.188102 0.945334,-0.279741 0.458198,-0.09646 0.89228,-0.09646 1.172022,0 1.750798,0.607715 0.578776,0.607715 0.578776,1.842437 z" />
        <path
           id="path1136"
           style=""
           d="m 59.751016,51.264237 v 3.260439 H 58.86356 v -3.2315 q 0,-0.766878 -0.299035,-1.147906 -0.299034,-0.381028 -0.897103,-0.381028 -0.718647,0 -1.133436,0.458198 -0.41479,0.458198 -0.41479,1.249192 v 3.053044 h -0.89228 v -5.401911 h 0.89228 v 0.839226 q 0.318327,-0.487137 0.747586,-0.728293 0.434082,-0.241157 0.998389,-0.241157 0.930865,0 1.408355,0.578776 0.47749,0.573953 0.47749,1.69292 z" />
        <path
           id="path1138"
           style=""
           d="m 64.964824,49.281929 v 0.839225 q -0.376205,-0.192925 -0.781348,-0.289388 -0.405143,-0.09646 -0.839226,-0.09646 -0.660769,0 -0.993565,0.202571 -0.327974,0.202572 -0.327974,0.607715 0,0.308681 0.236334,0.487137 0.236334,0.173633 0.950158,0.332796 l 0.303857,0.06752 q 0.945335,0.202572 1.340832,0.573953 0.40032,0.366558 0.40032,1.027328 0,0.752409 -0.598069,1.191314 -0.593246,0.438905 -1.635043,0.438905 -0.434082,0 -0.906749,-0.08682 -0.467844,-0.08199 -0.988743,-0.250803 v -0.916396 q 0.49196,0.255626 0.969451,0.385851 0.47749,0.125402 0.945334,0.125402 0.627007,0 0.964627,-0.212218 0.337619,-0.217041 0.337619,-0.607715 0,-0.361735 -0.24598,-0.554661 -0.241156,-0.192925 -1.065912,-0.371381 l -0.308681,-0.07235 q -0.824756,-0.173633 -1.191314,-0.530545 -0.366558,-0.361735 -0.366558,-0.988743 0,-0.762055 0.540191,-1.176845 0.540191,-0.414789 1.533756,-0.414789 0.49196,0 0.926042,0.07235 0.434082,0.07235 0.800641,0.217041 z" />
        <path
           id="path1140"
           style=""
           d="m 66.667391,47.019879 h 0.887457 v 7.504797 h -0.887457 z" />
        <path
           id="path1142"
           style=""
           d="m 71.866729,51.809252 q -1.075559,0 -1.490349,0.245979 -0.414789,0.24598 -0.414789,0.839226 0,0.472667 0.30868,0.752409 0.313504,0.274919 0.848872,0.274919 0.73794,0 1.181668,-0.520899 0.448552,-0.525722 0.448552,-1.393886 v -0.197748 z m 1.77009,-0.366559 v 3.081983 h -0.887456 v -0.819932 q -0.303858,0.491959 -0.757233,0.728293 -0.453374,0.23151 -1.109321,0.23151 -0.829579,0 -1.321538,-0.463021 -0.487137,-0.467844 -0.487137,-1.249192 0,-0.911572 0.607715,-1.374593 0.612538,-0.463021 1.823145,-0.463021 h 1.244369 v -0.08682 q 0,-0.612538 -0.405144,-0.945335 -0.40032,-0.337619 -1.128613,-0.337619 -0.463021,0 -0.901926,0.110932 -0.438906,0.110932 -0.844049,0.332796 v -0.819933 q 0.487137,-0.188102 0.945334,-0.279741 0.458198,-0.09646 0.89228,-0.09646 1.172022,0 1.750798,0.607715 0.578776,0.607715 0.578776,1.842437 z" />
        <path
           id="path1144"
           style=""
           d="m 76.3426,47.589009 v 1.533756 h 1.827968 v 0.689709 H 76.3426 v 2.932466 q 0,0.660769 0.178456,0.848871 0.183279,0.188103 0.737939,0.188103 h 0.911573 v 0.742762 h -0.911573 q -1.027327,0 -1.418001,-0.381027 Q 75.45032,53.757798 75.45032,52.74494 v -2.932466 h -0.651123 v -0.689709 h 0.651123 v -1.533756 z" />
        <path
           id="path1146"
           style=""
           d="m 81.431008,49.74495 q -0.713824,0 -1.128614,0.559484 -0.414789,0.55466 -0.414789,1.52411 0,0.96945 0.409966,1.528934 0.41479,0.55466 1.133437,0.55466 0.709001,0 1.12379,-0.559483 0.41479,-0.559484 0.41479,-1.524111 0,-0.959804 -0.41479,-1.519287 -0.414789,-0.564307 -1.12379,-0.564307 z m 0,-0.752409 q 1.157552,0 1.818322,0.752409 0.660769,0.752409 0.660769,2.083594 0,1.326362 -0.660769,2.083594 -0.66077,0.752409 -1.818322,0.752409 -1.162376,0 -1.823145,-0.752409 -0.655946,-0.757232 -0.655946,-2.083594 0,-1.331185 0.655946,-2.083594 0.660769,-0.752409 1.823145,-0.752409 z" />
        <path
           id="path1148"
           style=""
           d="m 88.51137,49.952345 q -0.149517,-0.08682 -0.327973,-0.125402 -0.173633,-0.04341 -0.385851,-0.04341 -0.752409,0 -1.157552,0.49196 -0.40032,0.487136 -0.40032,1.403532 v 2.845649 h -0.89228 v -5.401911 h 0.89228 v 0.839226 q 0.279741,-0.49196 0.728293,-0.728293 0.448552,-0.241157 1.090028,-0.241157 0.09164,0 0.202572,0.01447 0.110932,0.0096 0.24598,0.03376 z" />
      </g>
    </g>
    <rect
       y="46.30209"
       x="63.499992"
       height="1.3229167"
       width="2.116668"
       id="rect990"
       style="fill:#000000;fill-opacity:1;stroke:#000000;stroke-width:0;stroke-miterlimit:4;stroke-dasharray:none;stroke-opacity:1" />
    <rect
       style="fill:#3c3cc8;fill-opacity:1;stroke:#3c3cc8;stroke-width:0;stroke-miterlimit:4;stroke-dasharray:none"
       id="rect1032"
       width="2.116668"
       height="1.3229167"
       x="63.499992"
       y="48.418758" />
    <rect
       y="50.535427"
       x="63.499992"
       height="1.3229167"
       width="2.116668"
       id="rect1034"
       style="fill:#000000;fill-opacity:1;stroke:#000000;stroke-width:0;stroke-miterlimit:4;stroke-dasharray:none;stroke-opacity:1" />
    <rect
       style="fill:#ff8181;fill-opacity:1;stroke:#3c3cc8;stroke-width:0;stroke-miterlimit:4;stroke-dasharray:none"
       id="rect1036"
       width="2.116668"
       height="1.3229167"
       x="63.499992"
       y="52.652096" />
    <rect
       style="fill:#000000;fill-opacity:1;stroke:#000000;stroke-width:0;stroke-miterlimit:4;stroke-dasharray:none;stroke-opacity:1"
       id="rect1086"
       width="2.116668"
       height="1.3229167"
       x="66.145828"
       y="46.30209" />
    <rect
       y="48.418758"
       x="66.145828"
       height="1.3229167"
       width="2.116668"
       id="rect1088"
       style="fill:#000000;fill-opacity:1;stroke:#000000;stroke-width:0;stroke-miterlimit:4;stroke-dasharray:none;stroke-opacity:1" />
    <rect
       style="fill:#000000;fill-opacity:1;stroke:#000000;stroke-width:0;stroke-miterlimit:4;stroke-dasharray:none;stroke-opacity:1"
       id="rect1090"
       width="2.116668"
       height="1.3229167"
       x="66.145828"
       y="50.535427" />
    <rect
       y="52.652096"
       x="66.145828"
       height="1.3229167"
       width="2.116668"
       id="rect1092"
       style="fill:#000000;fill-opacity:1;stroke:#000000;stroke-width:0;stroke-miterlimit:4;stroke-dasharray:none;stroke-opacity:1" />
    <rect
       y="46.30209"
       x="68.791664"
       height="1.3229167"
       width="2.116668"
       id="rect1094"
       style="fill:#3c3cc8;fill-opacity:1;stroke:#3c3cc8;stroke-width:0;stroke-miterlimit:4;stroke-dasharray:none" />
    <rect
       style="fill:#ff8181;fill-opacity:1;stroke:#3c3cc8;stroke-width:0;stroke-miterlimit:4;stroke-dasharray:none"
       id="rect1096"
       width="2.116668"
       height="1.3229167"
       x="68.791664"
       y="48.418758" />
    <rect
       y="50.535427"
       x="68.791664"
       height="1.3229167"
       width="2.116668"
       id="rect1098"
       style="fill:#3c3cc8;fill-opacity:1;stroke:#3c3cc8;stroke-width:0;stroke-miterlimit:4;stroke-dasharray:none" />
    <rect
       style="fill:#000000;fill-opacity:1;stroke:#000000;stroke-width:0;stroke-miterlimit:4;stroke-dasharray:none;stroke-opacity:1"
       id="rect1100"
       width="2.116668"
       height="1.3229167"
       x="68.791664"
       y="52.652096" />
    <rect
       y="48.418758"
       x="71.4375"
       height="1.3229167"
       width="2.116668"
       id="rect1104"
       style="fill:#ff8181;fill-opacity:1;stroke:#3c3cc8;stroke-width:0;stroke-miterlimit:4;stroke-dasharray:none" />
    <rect
       y="52.652096"
       x="71.4375"
       height="1.3229167"
       width="2.116668"
       id="rect1108"
       style="fill:#000000;fill-opacity:1;stroke:#000000;stroke-width:0;stroke-miterlimit:4;stroke-dasharray:none;stroke-opacity:1" />
    <rect
       style="fill:#000000;fill-opacity:1;stroke:#3c3cc8;stroke-width:0;stroke-miterlimit:4;stroke-dasharray:none"
       id="rect1112"
       width="2.116668"
       height="1.3229167"
       x="74.083336"
       y="48.418758" />
    <rect
       style="fill:#000000;fill-opacity:1;stroke:#000000;stroke-width:0;stroke-miterlimit:4;stroke-dasharray:none;stroke-opacity:1"
       id="rect1116"
       width="2.116668"
       height="1.3229167"
       x="74.083336"
       y="52.652096" />
    <rect
       y="52.652096"
       x="76.729172"
       height="1.3229167"
       width="2.116668"
       id="rect1124"
       style="fill:#3c3cc8;fill-opacity:1;stroke:#3c3cc8;stroke-width:0;stroke-miterlimit:4;stroke-dasharray:none" />
  </g>
</svg>
